# xmcd
#
# Track frame offsets:
# 150
# 14662
# 32460
# 51125
# 67332
# 84207
# 101912
# 120342
# 141442
# 160555
# 179945
# 198860
#
# Disc length: 2994 seconds
#
#
# Revision: 0
# Processed by: cddbd v1.5.1PL2 Copyright (c) Steve Scherf et al.
# Submitted via: FreeRIP 2.941 
#
DISCID=a50bb00c
DTITLE=100 FOLK CELSIUS - TELE VAN A...
DYEAR=1995
DGENRE=Country
TTITLE0=Vidéki kislány
TTITLE1=Tele van a...
TTITLE2=Ohio
TTITLE3=Három aranyásó
TTITLE4=Jó öreg gépem
TTITLE5=Anyám, ha szeretsz
TTITLE6=Mikor Szekszárdra készültem
TTITLE7=Végtelenül, védtelenül
TTITLE8=Hé fiú, adj neki bátran
TTITLE9=Drága otthon
TTITLE10=Megint elmult egy nyár
TTITLE11=Vidéki kislány /REMIX
EXTD=
EXTT0=Szörényi L-Bródy J.
EXTT1=Kocsándi M. -Heilig G.
EXTT2=Tradicionális - Muzsai A.
EXTT3=Szerdahelyi Z. -Szenes I.
EXTT4=Orbán J.
EXTT5=Drosztmér I.
EXTT6=Drosztmér I.
EXTT7=Jakab Gy.- Lakatos G.- Heilig G.
EXTT8=Littvay I.- Kovács J.I.
EXTT9=Drosztmér I.
EXTT10=Heilig G.
EXTT11=Szörényi L.-Bródy J.
PLAYORDER=
